<?xml version="1.0" standalone="no"?>
<!DOCTYPE svg PUBLIC "-//W3C//DTD SVG 20010904//EN"
 "http://www.w3.org/TR/2001/REC-SVG-20010904/DTD/svg10.dtd">
<svg version="1.0" xmlns="http://www.w3.org/2000/svg"
 width="1284.000000pt" height="536.000000pt" viewBox="0 0 1284.000000 536.000000"
 preserveAspectRatio="xMidYMid meet">
<metadata>
Created by potrace 1.16, written by Peter Selinger 2001-2019
</metadata>
<g transform="translate(0.000000,536.000000) scale(0.100000,-0.100000)"
fill="#000000" stroke="none">
<path d="M160 3280 l0 -1920 6199 0 c3409 0 6211 3 6227 6 l29 6 0 1914 0
1914 -6227 0 -6228 0 0 -1920z m12350 0 l0 -1800 -6120 0 -6120 0 0 1800 0
1800 6120 0 6120 0 0 -1800z"/>
<path d="M520 3280 l0 -1560 2465 0 2465 0 0 1560 0 1560 -2465 0 -2465 0 0
-1560z m2282 368 l3 -203 80 3 c47 2 97 11 120 21 48 21 65 53 135 244 l48
132 126 3 c78 2 126 -1 126 -7 0 -6 -4 -20 -10 -33 -5 -13 -35 -88 -66 -168
-60 -157 -115 -273 -144 -305 -18 -20 -16 -24 75 -192 52 -95 114 -208 139
-250 30 -53 40 -80 32 -85 -6 -4 -64 -8 -128 -8 -86 0 -120 4 -130 14 -8 8
-52 85 -98 172 -45 88 -92 177 -104 199 l-21 40 -90 0 -90 0 -5 -210 -5 -210
-115 0 -115 0 -1 515 c-1 283 0 518 3 523 2 4 56 7 118 7 l115 0 2 -202z"/>
<path d="M6990 3325 l0 -525 273 0 c303 0 385 8 457 45 112 57 162 135 162
255 0 83 -24 133 -93 201 l-50 48 25 16 c97 64 119 263 40 363 -38 48 -140 98
-224 112 -36 5 -183 10 -327 10 l-263 0 0 -525z m454 296 c54 -6 73 -12 87
-30 36 -45 17 -123 -34 -141 -39 -13 -204 -13 -212 0 -4 6 -4 49 0 95 l7 85
42 -1 c22 0 72 -3 110 -8z m112 -434 c28 -33 30 -66 8 -112 -19 -41 -33 -45
-166 -45 l-108 0 0 93 c0 52 2 96 4 98 2 2 57 2 121 -1 113 -5 118 -6 141 -33z"/>
<path d="M8352 3838 c-7 -7 -12 -15 -12 -19 0 -8 -310 -813 -360 -936 -17 -40
-30 -75 -30 -78 0 -3 70 -4 156 -3 127 2 158 6 165 18 4 8 17 41 29 73 l22 57
180 0 179 0 15 -36 c9 -20 21 -53 27 -73 l12 -36 158 -3 c137 -2 157 0 157 13
0 15 -13 51 -146 390 -36 94 -104 268 -150 388 -46 120 -89 227 -94 238 -10
17 -22 19 -153 19 -98 0 -147 -4 -155 -12z m206 -493 c24 -65 46 -131 49 -147
l6 -28 -112 0 c-61 0 -111 1 -111 3 0 1 23 67 50 146 28 79 50 145 50 148 0 3
6 3 13 1 6 -3 31 -58 55 -123z"/>
<path d="M9182 3328 l3 -523 145 0 145 0 3 258 c1 141 6 257 11 257 5 0 17
-12 26 -27 30 -46 338 -456 358 -476 15 -15 33 -17 130 -15 l112 3 3 523 2
522 -151 0 -152 0 5 -260 c4 -232 3 -258 -10 -247 -9 6 -67 82 -130 167 -64
85 -146 197 -185 248 l-69 92 -124 0 -124 0 2 -522z"/>
<path d="M10340 3325 l0 -525 150 0 150 0 2 198 3 197 52 3 c29 2 60 -1 70 -6
9 -5 60 -95 112 -198 l96 -189 173 -3 c94 -1 172 0 172 4 0 5 -181 343 -242
452 -10 18 -18 38 -18 44 0 7 18 46 39 88 22 41 56 118 76 170 58 146 105 274
105 283 0 4 -72 6 -161 5 l-161 -3 -39 -115 c-51 -149 -88 -222 -119 -237 -14
-6 -54 -13 -90 -15 l-65 -3 -3 188 -2 187 -150 0 -150 0 0 -525z"/>
<path d="M317 612 c-17 -18 -67 -122 -137 -284 l-39 -88 25 0 c18 0 27 8 34
28 27 73 25 72 127 72 102 0 110 -4 145 -68 17 -33 48 -44 48 -18 0 23 -148
339 -168 359 -18 17 -19 17 -35 -1z m53 -114 c12 -35 31 -80 41 -101 17 -36
17 -38 1 -30 -9 4 -50 7 -90 6 -40 -1 -72 1 -70 6 26 65 83 181 88 181 4 0 17
-28 30 -62z"/>
<path d="M2749 596 c-24 -18 -75 -68 -114 -111 l-70 -79 -7 45 c-3 24 -7 72
-7 107 -1 60 -2 63 -23 60 -23 -3 -23 -4 -23 -188 0 -181 0 -185 21 -188 19
-3 22 3 28 50 7 50 43 108 69 108 5 0 43 -36 85 -80 53 -55 84 -80 100 -80 29
0 28 2 -65 112 -40 47 -73 90 -73 95 0 4 32 44 70 87 39 43 70 83 70 88 0 15
-17 8 -61 -26z"/>
<path d="M8438 608 c-6 -13 -30 -81 -53 -153 -23 -72 -45 -130 -49 -130 -5 0
-30 63 -57 139 -27 77 -53 144 -58 149 -13 13 -40 1 -47 -20 -4 -10 -12 -31
-19 -48 -7 -16 -25 -66 -39 -111 -15 -45 -33 -90 -40 -100 -13 -17 -15 -15
-26 26 -22 87 -72 235 -82 247 -17 21 -38 15 -38 -9 1 -13 24 -95 53 -182 76
-231 95 -234 164 -26 25 74 48 138 52 143 4 4 29 -59 57 -140 46 -138 51 -148
74 -148 17 0 29 8 38 29 22 44 102 308 102 333 0 29 -16 29 -32 1z"/>
<path d="M8788 612 c-23 -26 -168 -336 -168 -358 0 -8 9 -14 20 -14 13 0 27
14 42 46 l23 47 100 1 99 1 21 -43 c18 -38 56 -65 70 -50 3 2 -24 67 -59 144
-109 240 -121 258 -148 226z m64 -152 l34 -85 -83 -3 c-46 -1 -83 1 -83 5 0
19 84 183 91 176 3 -5 22 -46 41 -93z"/>
<path d="M9127 624 c-9 -9 1 -31 66 -143 54 -92 61 -111 63 -164 3 -64 13 -83
38 -74 12 5 16 21 16 64 0 62 0 62 78 198 29 49 52 95 52 103 0 30 -37 4 -67
-48 -61 -106 -83 -133 -97 -121 -8 6 -34 47 -60 91 -42 73 -75 108 -89 94z"/>
<path d="M10270 617 c0 -7 30 -64 68 -127 61 -104 67 -121 69 -174 1 -61 12
-82 36 -73 10 4 16 26 19 74 4 63 9 76 66 170 62 103 79 154 45 134 -10 -5
-42 -49 -73 -97 -30 -48 -60 -89 -65 -91 -6 -2 -27 26 -48 62 -56 98 -117 161
-117 122z"/>
<path d="M947 545 c-4 -43 -7 -127 -7 -186 l0 -108 36 -7 c50 -9 213 5 246 22
32 16 43 50 34 97 -4 17 -10 72 -15 120 -11 125 -17 130 -169 135 l-119 4 -6
-77z m216 26 c19 -8 25 -19 31 -57 3 -26 4 -50 1 -53 -3 -3 -48 -7 -100 -9
l-95 -4 0 66 0 66 69 0 c38 0 81 -4 94 -9z m45 -217 c4 -62 5 -61 -118 -70
l-90 -7 0 67 0 67 103 -3 102 -3 3 -51z"/>
<path d="M1566 598 c-16 -24 -59 -117 -121 -256 -26 -58 -34 -87 -27 -94 18
-18 39 -1 54 44 l15 43 102 -2 c56 -1 106 -5 111 -8 5 -3 14 -21 20 -40 8 -24
19 -37 36 -41 14 -4 27 -4 29 -2 3 3 -23 67 -58 144 -104 233 -127 263 -161
212z m74 -135 c22 -47 38 -88 36 -90 -2 -2 -40 -3 -84 -1 l-80 3 35 88 c19 48
39 87 44 87 5 0 27 -39 49 -87z"/>
<path d="M1959 445 c-1 -96 -2 -181 -3 -187 -1 -7 11 -14 26 -16 l27 -3 3 141
3 140 67 -87 c90 -119 161 -193 182 -193 16 0 17 11 12 143 -3 78 -5 163 -5
190 -1 39 -4 47 -20 47 -16 0 -19 -12 -25 -96 -3 -52 -3 -119 0 -147 l7 -52
-97 120 c-133 166 -142 175 -160 175 -14 0 -16 -22 -17 -175z"/>
<path d="M3212 608 c3 -7 27 -80 53 -163 55 -175 69 -205 94 -205 27 0 33 12
86 165 26 77 48 141 49 142 1 2 22 -61 46 -140 24 -78 49 -148 56 -156 7 -8
22 -11 36 -8 21 6 30 28 81 188 31 101 54 185 51 188 -18 18 -44 -31 -88 -163
-27 -81 -52 -144 -56 -139 -4 4 -23 58 -43 118 -80 244 -86 245 -165 11 -22
-65 -42 -120 -44 -122 -2 -2 -26 58 -53 134 -53 152 -59 162 -87 162 -12 0
-18 -5 -16 -12z"/>
<path d="M3959 445 c-1 -96 -2 -181 -3 -187 -1 -7 11 -14 27 -16 l27 -3 0 85
0 86 105 0 105 0 0 -79 c0 -72 2 -80 21 -86 35 -11 33 -32 30 290 -1 78 -3 85
-21 85 -16 0 -20 -7 -20 -32 0 -18 -3 -57 -6 -85 l-7 -53 -88 0 c-48 0 -94 3
-103 6 -11 4 -17 28 -22 85 -6 68 -9 79 -25 79 -18 0 -19 -11 -20 -175z"/>
<path d="M4505 608 c-2 -7 -3 -92 -2 -188 l2 -175 28 -3 c27 -3 27 -3 27 60 0
35 -3 120 -7 191 -5 115 -8 127 -25 127 -10 0 -21 -6 -23 -12z"/>
<path d="M4854 601 c-51 -23 -89 -71 -105 -133 -11 -40 -10 -52 5 -93 24 -60
75 -111 128 -125 84 -23 198 15 198 66 0 12 -8 11 -40 -6 -45 -23 -131 -27
-170 -7 -40 20 -70 74 -70 126 0 61 27 103 85 131 53 26 94 23 156 -9 32 -17
39 -18 39 -6 0 20 -34 53 -66 65 -40 16 -115 11 -160 -9z"/>
<path d="M5276 612 c-2 -4 -8 -87 -12 -184 -7 -174 -7 -176 15 -183 11 -3 25
-4 29 -1 5 3 7 39 4 80 -4 59 -1 77 9 80 8 3 60 6 117 8 l102 3 0 -82 c0 -83
0 -83 26 -83 26 0 27 1 20 46 -3 26 -6 109 -6 186 0 123 -2 139 -16 136 -13
-2 -17 -19 -20 -82 -2 -44 -5 -80 -6 -82 -2 -1 -52 -4 -113 -5 l-110 -3 -3 87
c-2 67 -6 87 -17 87 -8 0 -16 -3 -19 -8z"/>
<path d="M6067 613 c-3 -5 -4 -89 -3 -188 1 -180 1 -180 24 -180 12 0 22 3 22
8 0 4 0 88 0 187 0 172 -1 180 -19 180 -11 0 -22 -3 -24 -7z"/>
<path d="M6370 602 c-38 -19 -66 -78 -55 -119 6 -25 71 -62 147 -83 44 -12 88
-41 88 -59 0 -5 -9 -19 -19 -32 -17 -21 -27 -24 -83 -23 -34 1 -80 8 -100 17
-36 15 -38 15 -38 -3 0 -41 120 -72 197 -51 45 12 83 58 83 100 0 36 -50 77
-115 96 -88 25 -115 41 -115 70 0 51 63 75 153 57 57 -11 62 -10 54 12 -14 35
-140 47 -197 18z"/>
<path d="M7143 608 c-20 -25 -174 -360 -169 -366 16 -15 53 12 71 50 l20 43
99 0 99 0 18 -35 c25 -48 37 -60 60 -60 18 0 18 2 5 32 -91 212 -158 342 -177
346 -9 2 -20 -3 -26 -10z m68 -145 l35 -88 -82 -1 -82 0 18 45 c29 73 60 131
68 131 5 0 24 -39 43 -87z"/>
<path d="M7528 439 c-2 -100 0 -186 4 -192 6 -10 245 -3 256 8 2 2 2 11 -1 20
-5 12 -25 15 -107 15 l-100 0 -2 123 c-1 67 -3 136 -4 152 -1 17 -3 36 -3 43
-1 6 -10 12 -21 12 -18 0 -19 -9 -22 -181z"/>
<path d="M9675 610 c-33 -13 -65 -55 -72 -93 -4 -30 -1 -40 21 -60 14 -13 52
-32 84 -41 82 -23 122 -50 122 -81 0 -21 -8 -29 -37 -42 -38 -15 -58 -14 -165
13 -22 5 -28 3 -28 -10 0 -28 59 -50 137 -51 68 0 75 2 102 30 69 71 38 142
-74 171 -114 30 -137 55 -96 105 21 26 77 32 161 15 42 -8 44 -8 30 9 -32 39
-131 58 -185 35z"/>
<path d="M10845 604 c-58 -30 -95 -81 -108 -151 -12 -60 33 -151 92 -186 70
-41 174 -30 237 25 47 42 64 77 64 137 0 85 -30 135 -102 172 -46 24 -141 25
-183 3z m172 -54 c42 -25 63 -68 63 -126 0 -42 -5 -51 -44 -90 -41 -41 -47
-44 -97 -44 -66 0 -96 15 -126 59 -27 40 -31 107 -8 150 34 67 143 93 212 51z"/>
<path d="M11331 611 c-11 -7 -13 -36 -9 -138 3 -106 7 -135 24 -163 53 -93
215 -93 268 -1 16 27 21 59 24 147 5 130 0 164 -27 164 -17 0 -19 -11 -23
-132 -4 -138 -12 -169 -50 -189 -32 -17 -97 -13 -120 8 -35 32 -42 56 -47 182
-6 122 -12 140 -40 122z"/>
<path d="M11855 608 c-3 -7 -4 -92 -3 -188 l3 -175 28 -3 c27 -3 27 -3 27 56
l0 60 60 1 60 1 34 -54 c23 -36 43 -56 61 -60 15 -4 29 -5 32 -2 3 2 -14 30
-38 61 l-43 57 37 33 c63 58 56 146 -15 198 -36 26 -234 39 -243 15z m216 -51
c26 -20 41 -57 34 -87 -10 -46 -35 -61 -119 -67 l-76 -6 0 87 0 86 73 0 c41 0
79 -6 88 -13z"/>
<path d="M12395 602 c-41 -26 -55 -44 -62 -85 -6 -42 18 -69 86 -93 133 -46
136 -48 139 -82 3 -29 -1 -34 -32 -47 -46 -19 -79 -18 -144 4 l-53 18 3 -21
c4 -29 87 -58 151 -52 67 7 105 32 118 78 17 65 -12 96 -121 128 -92 27 -108
40 -94 77 14 40 49 55 114 49 30 -3 65 -9 78 -12 39 -11 15 23 -29 40 -53 21
-117 20 -154 -2z"/>
</g>
</svg>
